<svg width="900" height="600" viewBox="0 0 900 600" fill="none" xmlns="http://www.w3.org/2000/svg">
  <rect width="900" height="600" fill="#FFFFFF"/>
  <path d="M50 50H850V550H50V50Z" stroke="#E0E8F8" stroke-width="2"/>
  <path d="M70 70H830V530H70V70Z" stroke="#B7C7E5" stroke-width="2"/>
  <path d="M94 92C150 128 154 196 104 236C154 276 150 344 94 380" stroke="#EAF0FA" stroke-width="3"/>
  <path d="M806 92C750 128 746 196 796 236C746 276 750 344 806 380" stroke="#EAF0FA" stroke-width="3"/>
  <circle cx="450" cy="300" r="190" stroke="#F0F4FB" stroke-width="2"/>
  <circle cx="450" cy="300" r="145" stroke="#F0F4FB" stroke-width="2"/>
  <path d="M230 132H670M230 468H670" stroke="#EEF4FC" stroke-width="3" stroke-linecap="round"/>
  <path d="M348 120L450 178L552 120M348 480L450 422L552 480" stroke="#F0F4FB" stroke-width="2"/>
</svg>

