<svg width="620" height="360" viewBox="0 0 620 360" fill="none" xmlns="http://www.w3.org/2000/svg">
  <rect x="10" y="18" width="600" height="320" rx="160" fill="#F1F7FF"/>
  <circle cx="164" cy="174" r="92" fill="#E5F0FF"/>
  <circle cx="440" cy="174" r="132" fill="#EAF3FF"/>
  <rect x="126" y="88" width="150" height="96" rx="8" fill="#F8FBFF" stroke="#0B1833" stroke-width="4"/>
  <path d="M112 188H290L270 204H132L112 188Z" fill="#8EA9D6"/>
  <path d="M145 204H259" stroke="#0B1833" stroke-width="4" stroke-linecap="round"/>
  <rect x="167" y="116" width="68" height="44" rx="4" fill="white"/>
  <path d="M201 152V127M201 127L191 137M201 127L211 137" stroke="#1258EB" stroke-width="4" stroke-linecap="round" stroke-linejoin="round"/>
  <path d="M188 150H181C175 150 171 146 171 141C171 136 175 132 180 132C182 123 190 117 200 117C210 117 218 124 220 134C225 135 229 139 229 144C229 148 225 152 220 152H214" stroke="#9BB8E8" stroke-width="4" stroke-linecap="round"/>
  <path d="M326 164H375" stroke="#1258EB" stroke-width="4" stroke-linecap="round"/>
  <path d="M366 154L377 164L366 174" stroke="#1258EB" stroke-width="4" stroke-linecap="round" stroke-linejoin="round"/>
  <path d="M426 100L469 124V174L426 199L383 174V124L426 100Z" fill="#CFE0FF" stroke="#1258EB" stroke-width="3"/>
  <path d="M426 100V149M469 124L426 149L383 124M426 199V149" stroke="#1258EB" stroke-width="3"/>
  <path d="M348 94L383 114V154L348 174L313 154V114L348 94Z" fill="#DDEAFF" stroke="#1258EB" stroke-width="3"/>
  <path d="M348 94V134M383 114L348 134L313 114M348 174V134" stroke="#1258EB" stroke-width="3"/>
  <path d="M348 214L383 234V274L348 294L313 274V234L348 214Z" fill="#DDEAFF" stroke="#1258EB" stroke-width="3"/>
  <path d="M348 214V254M383 234L348 254L313 234M348 294V254" stroke="#1258EB" stroke-width="3"/>
  <path d="M384 154L409 142M384 234L410 186M469 174L507 194" stroke="#1258EB" stroke-width="4" stroke-linecap="round"/>
  <rect x="500" y="196" width="104" height="132" rx="8" fill="white" stroke="#0B1833" stroke-width="4"/>
  <rect x="520" y="224" width="64" height="8" rx="4" fill="#B7CAF0"/>
  <rect x="520" y="246" width="64" height="8" rx="4" fill="#D3E1F8"/>
  <rect x="520" y="268" width="45" height="8" rx="4" fill="#D3E1F8"/>
  <circle cx="552" cy="292" r="17" fill="#F7FBFF" stroke="#1258EB" stroke-width="4"/>
  <path d="M542 309L552 302L562 309V329L552 323L542 329V309Z" fill="#CFE0FF" stroke="#1258EB" stroke-width="3" stroke-linejoin="round"/>
  <text x="198" y="106" text-anchor="middle" fill="#0B1833" font-family="Arial, sans-serif" font-size="12" font-weight="700">Upload Your Work</text>
  <text x="426" y="74" text-anchor="middle" fill="#0B1833" font-family="Arial, sans-serif" font-size="13" font-weight="700">Blockchain</text>
  <text x="426" y="90" text-anchor="middle" fill="#0B1833" font-family="Arial, sans-serif" font-size="13" font-weight="700">Registration</text>
  <text x="552" y="344" text-anchor="middle" fill="#0B1833" font-family="Arial, sans-serif" font-size="12" font-weight="700">Digital Copyright</text>
  <text x="552" y="358" text-anchor="middle" fill="#0B1833" font-family="Arial, sans-serif" font-size="12" font-weight="700">Certificate</text>
</svg>

